<?xml version="1.0" standalone="no"?>
<!DOCTYPE svg PUBLIC "-//W3C//DTD SVG 20010904//EN"
 "http://www.w3.org/TR/2001/REC-SVG-20010904/DTD/svg10.dtd">
<svg version="1.0" xmlns="http://www.w3.org/2000/svg"
 width="48.000000pt" height="48.000000pt" viewBox="0 0 48.000000 48.000000"
 preserveAspectRatio="xMidYMid meet">

<g transform="translate(0.000000,48.000000) scale(0.100000,-0.100000)"
fill="#000000" stroke="none">
<path d="M100 421 c-7 -14 -6 -31 5 -62 15 -42 15 -43 -35 -171 -27 -70 -50
-133 -50 -138 0 -6 34 -9 83 -8 45 1 63 3 40 5 -32 3 -43 8 -43 21 -1 16 -1
16 -11 0 -10 -18 -49 -25 -49 -10 0 4 21 62 46 130 46 120 65 151 46 76 -20
-79 -22 -94 -13 -94 5 0 14 29 21 65 15 79 28 86 22 11 -3 -33 0 -56 7 -60 8
-5 11 14 12 61 1 63 2 65 11 33 19 -68 29 -78 23 -25 l-5 50 19 -40 c12 -24
20 -33 20 -22 1 10 -4 28 -10 39 -9 16 -8 35 1 74 11 43 11 56 0 69 -16 19
-47 19 -58 -1 -8 -14 -10 -14 -21 0 -18 22 -48 20 -61 -3z m54 -13 l16 -22 23
22 c20 19 26 20 35 9 9 -11 9 -23 -1 -53 -13 -36 -17 -39 -54 -42 -40 -3 -40
-3 -53 42 -17 63 3 89 34 44z"/>
<path d="M290 250 c-11 -11 -20 -24 -20 -29 0 -5 -9 -11 -19 -14 -21 -5 -55
-102 -49 -140 3 -21 9 -22 125 -25 109 -2 123 -1 131 15 13 27 -25 144 -49
150 -11 3 -19 9 -19 14 0 17 -40 49 -60 49 -11 0 -29 -9 -40 -20z m79 -22 c7
-20 7 -63 0 -78 -1 -3 -5 15 -8 40 -5 40 -9 45 -31 45 -22 0 -25 -5 -28 -43
-2 -23 -7 -40 -13 -37 -12 8 -12 37 1 69 13 35 66 37 79 4z m-99 -62 c0 -14 5
-28 10 -31 16 -10 42 16 37 37 -4 12 0 18 13 18 13 0 17 -6 13 -18 -5 -21 21
-47 37 -37 5 3 10 17 10 31 0 13 6 24 13 24 15 0 51 -115 42 -131 -8 -12 -222
-12 -230 0 -9 16 27 131 42 131 7 0 13 -11 13 -24z"/>
<path d="M160 120 c0 -22 5 -40 10 -40 6 0 10 18 10 40 0 22 -4 40 -10 40 -5
0 -10 -18 -10 -40z"/>
<path d="M105 140 c-3 -5 -1 -10 4 -10 6 0 11 5 11 10 0 6 -2 10 -4 10 -3 0
-8 -4 -11 -10z"/>
</g>
</svg>
